<?xml version="1.0" encoding="UTF-8"?><svg width="330px" height="286px" viewBox="0 0 330 286" version="1.1" xmlns="http://www.w3.org/2000/svg" xmlns:xlink="http://www.w3.org/1999/xlink">        <title>logo</title>    <desc>Created with Sketch.</desc>    <defs></defs>    <g id="Page-1" stroke="none" stroke-width="1" fill="none" fill-rule="evenodd">        <g id="logo">            <g id="symbol">                <polygon id="Shape" fill="#000000" fill-rule="nonzero" points="247.336245 0 82.5327511 0 0 143 82.5327511 286 247.467249 286 330 143"></polygon>                <path d="M164.934498,212.007339 C126.812227,212.007339 96.0262009,181.177064 96.0262009,143 C96.0262009,104.822936 126.812227,73.9926606 164.934498,73.9926606 C202.925764,73.9926606 233.842795,104.954128 233.842795,143 C233.842795,181.045872 202.925764,212.007339 164.934498,212.007339 Z" id="Path" fill="#FFFFFF"></path>            </g>            <g id="wine" transform="translate(63.000000, 29.000000)" fill="#FFFFFF" fill-rule="nonzero">                <polygon id="Shape" points="32.5301419 55.7860359 17.97028 39.4034768 20.5936786 35.4399544 41.1873571 58.8247364 38.8262984 62.2597891 19.2819793 56.3145056 32.0054622 72.3007125 29.6444035 75.7357652 0.393509781 65.1663722 3.01690832 61.2028498 23.479417 68.7335423 10.4935942 52.3509832 12.3299731 49.5765175"></polygon>                <polygon id="Shape" points="52.5991408 48.9159305 49.0575527 51.8225135 29.6444035 28.7019664 33.1859916 25.6632659"></polygon>                <polygon id="Shape" points="43.6795857 17.4719863 47.0900038 15.75446 70.4382509 28.9662012 60.7316763 9.01647193 64.9291139 7.03471074 78.1772766 34.2508977 74.1110088 36.2326589 51.9432911 23.5493873 61.256356 42.5742947 57.0589183 44.5560559"></polygon>                <polygon id="Shape" points="84.7357729 6.90259333 85.7851323 14.169051 95.8852167 12.7157595 96.5410664 17.3398689 86.440982 18.7931604 87.7526812 27.9092619 102.312543 25.7953833 102.968393 30.2873753 83.8175834 33.061841 79.4889758 3.07118837 98.6397852 0.296722713 99.2956348 4.78871473"></polygon>            </g>            <g id="mechanics" transform="translate(85.000000, 111.000000)" fill="#FFFFFF" fill-rule="nonzero">                <polygon id="Shape" points="37.2275159 103.321963 40.6356688 105.940247 22.2840764 129.766636 18.613758 126.886523 30.1490446 111.962302 14.8123567 119.948069 11.5352866 117.329785 15.4677707 100.44185 3.80140127 115.496986 0.131082803 112.616873 18.613758 88.7904838 22.0219108 91.4087683 16.7785987 113.664187"></polygon>                <polygon id="Shape" points="50.5979618 114.318758 48.3695541 121.257212 58.0696815 124.399153 56.6277707 128.719322 46.9276433 125.577381 44.1749045 134.348634 58.2007643 138.799718 56.7588535 143.119887 38.2761783 137.228747 47.4519745 108.558532 65.9346497 114.449672 64.6238217 118.769841"></polygon>                <polygon id="Shape" points="79.4361783 145.607257 74.8482803 143.643544 71.9644586 140.763431 70.1292994 136.966918 69.3428025 133.432234 69.3428025 127.148352 70.1292994 123.482753 71.9644586 119.817155 74.9793631 116.937042 79.4361783 114.973329 84.1551592 114.973329 88.6119745 116.806128 90.4471338 118.246184 92.4133758 120.60264 89.1363057 123.744582 87.4322293 121.649954 86.2524841 120.733555 83.3686624 119.424412 80.2226752 119.424412 77.6010191 120.60264 75.6347771 122.43544 74.4550318 124.791896 73.7996178 127.541094 73.7996178 132.646749 74.4550318 135.395948 75.6347771 137.883318 77.4699363 139.716117 80.2226752 141.025259 83.3686624 141.025259 86.3835669 139.716117 87.4322293 138.799718 89.1363057 136.836004 92.4133758 139.977946 90.316051 142.334402 88.3498089 143.774458 83.8929936 145.476343"></polygon>                <polygon id="Shape" points="117.056943 120.209898 113.386624 108.951274 117.843439 107.511218 127.281401 136.050519 122.955669 137.490575 118.629936 124.530067 107.356815 128.32658 111.682548 141.287088 107.356815 142.727144 97.9188535 114.187843 102.244586 112.747787 105.914904 124.00641"></polygon>                <path d="M149.303312,113.402358 L140.914013,119.686241 L143.273503,127.279266 L139.341019,130.159379 L130.165223,99.5254502 L132.917962,97.4308226 L159.658854,115.104243 L155.726369,117.984356 L149.303312,113.402358 Z M139.472102,115.104243 L145.370828,110.784074 L136.195032,104.631105 L139.472102,115.104243 Z" id="Shape"></path>                <polygon id="Shape" points="144.453248 87.74317 146.550573 84.6012286 173.291465 84.3394002 154.939873 72.0334631 157.561529 68.2369505 182.598344 84.9939713 180.107771 88.7904838 154.546624 88.921398 172.11172 100.703678 169.490064 104.500191"></polygon>                <polygon id="Shape" points="189.676815 67.320551 188.103822 71.6407204 159.789936 61.5603251 161.36293 57.2401557"></polygon>                <polygon id="Shape" points="195.05121 45.196047 192.560637 49.5162164 189.283567 52.0035867 185.351083 53.3127289 181.680764 53.7054716 175.519873 52.9199863 171.980637 51.7417582 168.572484 49.5162164 165.950828 46.1124466 164.508917 41.5304487 165.033248 36.8175366 167.261656 32.6282814 168.965732 30.9263965 171.587389 29.2245116 174.340127 32.8901099 172.11172 34.4610806 171.063057 35.5083944 169.490064 38.2575931 169.096815 41.2686203 170.014395 44.017819 171.587389 46.1124466 173.815796 47.5525031 176.437452 48.4689026 181.549682 49.1234737 184.30242 48.8616453 186.924076 47.9452457 188.890318 46.374275 190.463312 43.8869048 190.856561 40.7449634 189.938981 37.603022 189.152484 36.424794 187.317325 34.4610806 190.856561 31.5809676 192.953885 33.8065095 194.264713 35.9011371 195.575541 40.6140491"></polygon>                <path d="M192.429554,19.2750305 L191.118726,20.8460012 L187.317325,18.2277167 L188.49707,16.7876603 L189.283567,14.9548611 L189.545732,11.420177 L188.890318,8.14732143 L187.317325,5.65995116 L186.268662,5.13629426 L185.22,4.87446581 L183.122675,5.26720849 L181.680764,6.31452228 L181.156433,8.14732143 C181.02535,10.8965201 180.632102,13.7766331 180.501019,16.656746 L178.796943,20.4532585 L176.830701,22.2860577 L173.422548,23.5951999 L169.490064,23.2024573 L166.081911,20.9769154 L163.984586,17.3113172 L163.067006,12.8602335 L163.329172,7.88549298 L164.64,4.35080891 L168.965732,6.05269383 L167.91707,9.19463523 L167.654904,12.7293193 L168.310318,15.7403465 L169.358981,17.7040598 L170.931975,18.7513736 L172.636051,18.8822879 L174.209045,18.2277167 L174.733376,17.8349741 L175.650955,15.7403465 L176.306369,6.83817918 L178.010446,3.04166667 L181.02535,1.0779533 L185.22,0.292467949 L187.710573,0.947039072 L190.594395,2.51800977 L193.216051,6.83817918 L194.133631,11.6820055 L193.609299,16.5258318 L192.429554,19.2750305 Z" id="Shape"></path>            </g>        </g>    </g></svg>